<!DOCTYPE svg PUBLIC "-//W3C//DTD SVG 20010904//EN" "http://www.w3.org/TR/2001/REC-SVG-20010904/DTD/svg10.dtd">
<svg version="1.0" xmlns="http://www.w3.org/2000/svg" width="2006px" height="2006px" viewBox="0 0 12000 12000" preserveAspectRatio="xMidYMid meet">
<!-- <g id="layer101" fill="#0b1b32" stroke="none"> -->
<g id="layer101" fill="#1a56a3" stroke="none">
 <path d="M5680 11799 c-1130 -90 -2177 -487 -3070 -1165 -883 -670 -1542 -1557 -1937 -2604 -311 -826 -426 -1779 -323 -2678 131 -1152 605 -2236 1365 -3122 198 -232 516 -539 760 -736 695 -561 1520 -957 2390 -1148 1558 -342 3202 -28 4505 862 332 227 539 400 846 707 365 365 609 672 861 1085 73 120 121 210 86 160 -649 -912 -1476 -1549 -2487 -1917 -1271 -462 -2730 -392 -3941 188 l-70 34 75 2 c779 23 1451 140 1945 338 631 253 1026 654 1235 1253 l32 89 131 43 c435 139 688 322 780 566 19 51 22 78 22 199 -1 131 -3 146 -33 233 -43 124 -189 412 -209 412 -3 0 -35 -29 -72 -64 -119 -116 -290 -252 -456 -363 -750 -502 -1697 -690 -2660 -527 -1257 212 -2387 1007 -2948 2074 -377 716 -481 1511 -306 2340 135 642 443 1135 1033 1654 441 388 836 655 1341 906 670 332 1273 507 1975 571 159 14 615 14 785 0 330 -28 654 -85 952 -167 857 -235 1609 -670 2258 -1305 83 -81 154 -151 159 -156 13 -11 -112 142 -192 237 -518 607 -1237 1148 -1967 1482 -587 269 -1157 425 -1840 504 -166 19 -843 28 -1025 13z m-3489 -6294 c553 -1002 1639 -1797 2839 -2079 193 -45 376 -75 590 -98 159 -16 627 -16 780 1 797 87 1482 367 2127 870 l103 80 20 -67 c113 -373 -54 -643 -488 -794 -94 -32 -275 -78 -309 -78 -18 0 -30 -18 -67 -96 -414 -875 -1222 -1337 -2271 -1301 -211 8 -314 18 -525 53 -319 53 -726 172 -1054 309 -155 64 -499 226 -493 231 1 2 68 -16 147 -40 662 -199 1274 -232 1765 -95 181 51 181 54 1 68 -1114 85 -1977 462 -2557 1115 -54 61 -96 112 -94 114 2 2 34 -19 72 -46 317 -230 778 -461 1138 -570 436 -132 800 -180 1289 -169 215 5 552 29 563 41 2 1 -90 22 -204 45 -1547 320 -2515 885 -3074 1796 -129 210 -235 433 -328 693 -71 197 -69 198 30 17z"/>
 <path d="M7150 3023 c-43 -68 -155 -184 -233 -242 -88 -64 -199 -121 -311 -158 l-101 -33 155 4 c125 3 175 9 255 30 121 31 295 115 381 185 53 43 154 161 154 180 0 3 -53 22 -117 42 -65 20 -125 39 -133 42 -11 4 -25 -11 -50 -50z"/>
 <path d="M6630 10839 c-80 -5 -163 -14 -185 -18 -39 -9 -39 -9 21 -10 198 -3 532 -43 774 -92 1030 -208 1934 -737 2647 -1549 l119 -135 332 -3 c183 -1 332 1 332 4 0 18 -171 214 -314 362 -798 820 -1837 1319 -2971 1427 -204 20 -568 26 -755 14z"/>
 <path d="M6305 10394 c-22 -2 -98 -9 -170 -15 -827 -67 -1651 -402 -2313 -938 -639 -517 -1108 -1193 -1373 -1980 -27 -80 -47 -146 -46 -148 2 -1 27 61 56 140 29 78 92 223 140 322 223 460 462 797 821 1156 342 342 684 591 1100 798 975 485 2108 573 3150 243 550 -174 1023 -440 1489 -836 l124 -106 184 0 c100 0 183 3 183 8 0 10 -238 244 -330 324 -649 561 -1476 918 -2351 1013 -137 15 -579 28 -664 19z"/>
 <path d="M10133 8750 c-164 -43 -324 -140 -468 -286 -250 -251 -387 -542 -457 -969 -19 -111 -22 -172 -22 -425 -1 -261 2 -312 22 -440 81 -506 275 -904 597 -1225 181 -180 351 -282 565 -340 303 -81 718 -43 1058 97 l72 30 0 424 0 424 -73 0 -74 0 -17 -104 c-18 -114 -48 -211 -91 -296 -208 -415 -729 -566 -1133 -329 -74 44 -204 175 -265 266 -150 226 -243 497 -289 843 -18 143 -15 537 6 685 61 427 205 758 431 994 123 128 252 206 410 247 102 26 303 24 409 -5 215 -58 404 -174 644 -397 l102 -95 0 87 0 86 -182 183 c-329 327 -575 487 -845 549 -102 23 -305 21 -400 -4z"/>
 <path d="M7031 8648 c-5 -13 -98 -243 -206 -513 -197 -490 -568 -1410 -713 -1772 -42 -105 -78 -191 -79 -190 -2 3 -56 561 -83 857 -64 734 -52 1054 47 1257 47 95 127 161 216 177 37 7 37 7 37 56 l0 50 -475 2 c-261 0 -481 1 -487 2 -9 1 -14 -17 -16 -52 -3 -43 0 -53 15 -58 85 -26 148 -74 199 -151 115 -173 250 -699 319 -1238 35 -282 86 -881 80 -947 -13 -125 -68 -190 -175 -203 -118 -15 -110 -10 -110 -66 l0 -49 357 2 358 3 101 250 c56 138 188 464 294 725 235 579 440 1083 490 1207 36 91 37 92 49 65 7 -15 150 -351 318 -747 340 -804 466 -1116 545 -1347 l53 -158 388 0 387 0 0 50 c0 55 7 50 -110 64 -145 17 -206 75 -224 211 -6 43 24 408 74 900 6 55 19 192 30 305 58 612 73 753 90 837 22 106 52 182 83 212 35 32 108 60 191 72 l76 11 0 52 0 51 -530 0 -530 0 0 -51 0 -52 71 -10 c103 -15 157 -46 188 -107 39 -75 39 -178 -4 -605 -19 -201 -56 -570 -80 -820 -24 -250 -47 -475 -51 -499 l-6 -44 -45 79 c-80 141 -305 565 -362 683 -30 64 -191 431 -356 816 l-300 700 -53 3 c-47 3 -53 1 -61 -20z"/>
 <path d="M10497 4733 c-79 -5 -69 10 -142 -196 -350 -981 -1074 -1813 -2000 -2299 -60 -32 -106 -58 -102 -58 16 0 233 107 362 179 786 440 1427 1132 1801 1941 114 246 185 445 157 438 -5 -1 -39 -3 -76 -5z"/>
 <path d="M11174 4733 l-322 -3 -10 -28 c-6 -15 -30 -83 -53 -152 -231 -681 -620 -1307 -1132 -1821 -354 -356 -749 -644 -1207 -881 -533 -276 -1162 -454 -1760 -498 -85 -7 -182 -15 -215 -19 l-60 -7 115 -11 c168 -15 744 -9 911 11 798 93 1496 346 2144 779 868 580 1531 1441 1865 2422 51 147 68 217 54 213 -5 -2 -154 -4 -330 -5z"/>
 </g>
<g id="layer102" fill="#e34b36" stroke="none">
 <path d="M10133 8750 c-164 -43 -324 -140 -468 -286 -250 -251 -387 -542 -457 -969 -19 -111 -22 -172 -22 -425 -1 -261 2 -312 22 -440 81 -506 275 -904 597 -1225 181 -180 351 -282 565 -340 303 -81 718 -43 1058 97 l72 30 0 424 0 424 -73 0 -74 0 -17 -104 c-18 -114 -48 -211 -91 -296 -208 -415 -729 -566 -1133 -329 -74 44 -204 175 -265 266 -150 226 -243 497 -289 843 -18 143 -15 537 6 685 61 427 205 758 431 994 123 128 252 206 410 247 102 26 303 24 409 -5 215 -58 404 -174 644 -397 l102 -95 0 87 0 86 -182 183 c-329 327 -575 487 -845 549 -102 23 -305 21 -400 -4z"/>
 </g>

</svg>